<?xml version="1.0" encoding="UTF-8" standalone="no"?>
<svg
   xmlns:dc="http://purl.org/dc/elements/1.1/"
   xmlns:cc="http://creativecommons.org/ns#"
   xmlns:rdf="http://www.w3.org/1999/02/22-rdf-syntax-ns#"
   xmlns:svg="http://www.w3.org/2000/svg"
   xmlns="http://www.w3.org/2000/svg"
   version="1.1"
   id="svg2"
   xml:space="preserve"
   width="194.94225"
   height="178.37007"
   viewBox="0 0 194.94224 178.37008"><metadata
     id="metadata8"><rdf:RDF><cc:Work
         rdf:about=""><dc:format>image/svg+xml</dc:format><dc:type
           rdf:resource="http://purl.org/dc/dcmitype/StillImage" /><dc:title></dc:title></cc:Work></rdf:RDF></metadata><defs
     id="defs6"><clipPath
       clipPathUnits="userSpaceOnUse"
       id="clipPath18"><path
         d="M 0,347.116 H 530.526 V 0 H 0 Z"
         id="path16" /></clipPath><clipPath
       clipPathUnits="userSpaceOnUse"
       id="clipPath26"><path
         d="m 390.699,116.422 h 121.085 v -0.268 H 390.699 Z"
         id="path24" /></clipPath><clipPath
       clipPathUnits="userSpaceOnUse"
       id="clipPath42"><path
         d="m 390.579,116.542 h 121.325 v -0.508 H 390.579 Z"
         id="path40" /></clipPath><clipPath
       clipPathUnits="userSpaceOnUse"
       id="clipPath58"><path
         d="m 390.64,116.422 h 39.082 V 115.64 H 390.64 Z"
         id="path56" /></clipPath><clipPath
       clipPathUnits="userSpaceOnUse"
       id="clipPath74"><path
         d="m 390.52,116.542 h 39.322 V 115.52 H 390.52 Z"
         id="path72" /></clipPath><clipPath
       clipPathUnits="userSpaceOnUse"
       id="clipPath90"><path
         d="M 429.722,325.058 H 486.42 V 116.422 h -56.698 z"
         id="path88" /></clipPath><clipPath
       clipPathUnits="userSpaceOnUse"
       id="clipPath106"><path
         d="M 429.602,325.178 H 486.54 V 116.302 h -56.938 z"
         id="path104" /></clipPath><clipPath
       clipPathUnits="userSpaceOnUse"
       id="clipPath122"><path
         d="m 486.42,116.422 h 25.377 v -0.714 H 486.42 Z"
         id="path120" /></clipPath><clipPath
       clipPathUnits="userSpaceOnUse"
       id="clipPath138"><path
         d="m 486.3,116.542 h 25.617 v -0.954 H 486.3 Z"
         id="path136" /></clipPath><clipPath
       clipPathUnits="userSpaceOnUse"
       id="clipPath158"><path
         d="M 0,0 H 530.527 V 347.116 H 0 Z"
         id="path156" /></clipPath><clipPath
       clipPathUnits="userSpaceOnUse"
       id="clipPath166"><path
         d="m 261.294,88.1139 h 14.785 V 56.4265 h -14.785 z"
         id="path164" /></clipPath><clipPath
       clipPathUnits="userSpaceOnUse"
       id="clipPath186"><path
         d="m 261.294,74.469 h 12.631 V 56.4265 h -12.631 z"
         id="path184" /></clipPath><clipPath
       clipPathUnits="userSpaceOnUse"
       id="clipPath206"><path
         d="m 261.294,56.4265 h 12.631 V 33.0998 h -12.631 z"
         id="path204" /></clipPath><clipPath
       clipPathUnits="userSpaceOnUse"
       id="clipPath226"><path
         d="m 261.294,56.4265 h 12.631 v -41.713 h -12.631 z"
         id="path224" /></clipPath><clipPath
       clipPathUnits="userSpaceOnUse"
       id="clipPath246"><path
         d="m 288.552,92.8568 h 15.998 v 0 z"
         id="path244" /></clipPath><clipPath
       clipPathUnits="userSpaceOnUse"
       id="clipPath266"><path
         d="M 288.552,92.8568 H 304.55 V 74.4705 h -15.998 z"
         id="path264" /></clipPath><clipPath
       clipPathUnits="userSpaceOnUse"
       id="clipPath286"><path
         d="M 288.552,92.8568 H 304.55 V 33.1013 h -15.998 z"
         id="path284" /></clipPath><clipPath
       clipPathUnits="userSpaceOnUse"
       id="clipPath306"><path
         d="M 288.552,92.8568 H 304.55 V 14.715 h -15.998 z"
         id="path304" /></clipPath><clipPath
       clipPathUnits="userSpaceOnUse"
       id="clipPath326"><path
         d="m 288.552,74.4705 h 15.998 v 0 z"
         id="path324" /></clipPath><clipPath
       clipPathUnits="userSpaceOnUse"
       id="clipPath346"><path
         d="M 288.552,92.8568 H 304.55 V 74.4705 h -15.998 z"
         id="path344" /></clipPath><clipPath
       clipPathUnits="userSpaceOnUse"
       id="clipPath366"><path
         d="M 288.552,74.4705 H 304.55 V 33.1013 h -15.998 z"
         id="path364" /></clipPath><clipPath
       clipPathUnits="userSpaceOnUse"
       id="clipPath386"><path
         d="M 288.552,74.4705 H 304.55 V 14.715 h -15.998 z"
         id="path384" /></clipPath><clipPath
       clipPathUnits="userSpaceOnUse"
       id="clipPath406"><path
         d="m 288.552,33.1013 h 15.998 v 0 z"
         id="path404" /></clipPath><clipPath
       clipPathUnits="userSpaceOnUse"
       id="clipPath426"><path
         d="M 288.552,33.1013 H 304.55 V 14.715 h -15.998 z"
         id="path424" /></clipPath><clipPath
       clipPathUnits="userSpaceOnUse"
       id="clipPath446"><path
         d="M 288.552,74.4705 H 304.55 V 33.1013 h -15.998 z"
         id="path444" /></clipPath><clipPath
       clipPathUnits="userSpaceOnUse"
       id="clipPath466"><path
         d="M 288.552,92.8568 H 304.55 V 33.1013 h -15.998 z"
         id="path464" /></clipPath><clipPath
       clipPathUnits="userSpaceOnUse"
       id="clipPath486"><path
         d="m 288.552,14.715 h 15.998 v 0 z"
         id="path484" /></clipPath><clipPath
       clipPathUnits="userSpaceOnUse"
       id="clipPath506"><path
         d="M 288.552,33.1013 H 304.55 V 14.715 h -15.998 z"
         id="path504" /></clipPath><clipPath
       clipPathUnits="userSpaceOnUse"
       id="clipPath526"><path
         d="M 288.552,74.4705 H 304.55 V 14.715 h -15.998 z"
         id="path524" /></clipPath><clipPath
       clipPathUnits="userSpaceOnUse"
       id="clipPath546"><path
         d="M 288.552,92.8568 H 304.55 V 14.715 h -15.998 z"
         id="path544" /></clipPath><clipPath
       clipPathUnits="userSpaceOnUse"
       id="clipPath566"><path
         d="m 319.17,92.8568 h 14.079 V 56.428 H 319.17 Z"
         id="path564" /></clipPath><clipPath
       clipPathUnits="userSpaceOnUse"
       id="clipPath586"><path
         d="m 319.17,74.4705 h 14.079 V 56.428 H 319.17 Z"
         id="path584" /></clipPath><clipPath
       clipPathUnits="userSpaceOnUse"
       id="clipPath606"><path
         d="m 319.17,56.428 h 14.079 V 33.1013 H 319.17 Z"
         id="path604" /></clipPath><clipPath
       clipPathUnits="userSpaceOnUse"
       id="clipPath626"><path
         d="m 319.17,56.428 h 14.079 V 14.715 H 319.17 Z"
         id="path624" /></clipPath><clipPath
       clipPathUnits="userSpaceOnUse"
       id="clipPath726"><path
         d="m 281.241,67.7566 v 0 -27.9414 0 z"
         id="path724" /></clipPath><clipPath
       clipPathUnits="userSpaceOnUse"
       id="clipPath746"><path
         d="m 311.859,67.7566 v 0 -27.9414 0 z"
         id="path744" /></clipPath><clipPath
       clipPathUnits="userSpaceOnUse"
       id="clipPath766"><path
         d="M 0,347.116 H 530.526 V 0 H 0 Z"
         id="path764" /></clipPath><clipPath
       clipPathUnits="userSpaceOnUse"
       id="clipPath856"><path
         d="M 0,347.116 H 530.526 V 0 H 0 Z"
         id="path854" /></clipPath><clipPath
       clipPathUnits="userSpaceOnUse"
       id="clipPath868"><path
         d="M 22.5797,265.516 H 245.76 V 117.104 H 22.5797 Z"
         id="path866" /></clipPath></defs><g
     id="g10"
     transform="matrix(1.3333333,0,0,-1.3333333,-296.61491,327.73433)"><path
       fill="#000000"
       fill-opacity="0"
       d="m 248.67281,192.85879 21.02362,30.85042"
       fill-rule="evenodd"
       id="path10876"
       style="stroke:none;stroke-width:0.75;stroke-linecap:square;stroke-miterlimit:10" /><path
       stroke="#666666"
       stroke-width="0.75"
       stroke-linejoin="round"
       stroke-linecap="butt"
       d="m 248.67281,192.85879 21.02362,30.85042"
       fill-rule="evenodd"
       id="path10878"
       style="fill:none;stroke-miterlimit:10" /><path
       fill="#000000"
       fill-opacity="0"
       d="m 248.67281,192.85879 18.23622,13.063"
       fill-rule="evenodd"
       id="path10880"
       style="stroke:none;stroke-width:0.75;stroke-linecap:square;stroke-miterlimit:10" /><path
       stroke="#666666"
       stroke-width="0.75"
       stroke-linejoin="round"
       stroke-linecap="butt"
       d="m 248.67281,192.85879 18.23622,13.063"
       fill-rule="evenodd"
       id="path10882"
       style="fill:none;stroke-miterlimit:10" /><path
       fill="#000000"
       fill-opacity="0"
       d="m 248.67281,192.85879 18.23622,-40.937"
       fill-rule="evenodd"
       id="path10884"
       style="stroke:none;stroke-width:0.75;stroke-linecap:square;stroke-miterlimit:10" /><path
       stroke="#666666"
       stroke-width="0.75"
       stroke-linejoin="round"
       stroke-linecap="butt"
       d="m 248.67281,192.85879 18.23622,-40.937"
       fill-rule="evenodd"
       id="path10886"
       style="fill:none;stroke-miterlimit:10" /><path
       fill="#000000"
       fill-opacity="0"
       d="m 248.67281,162.85879 18.23622,-34.937"
       fill-rule="evenodd"
       id="path10888"
       style="stroke:none;stroke-width:0.75;stroke-linecap:square;stroke-miterlimit:10" /><path
       stroke="#666666"
       stroke-width="0.75"
       stroke-linejoin="round"
       stroke-linecap="butt"
       d="m 248.67281,162.85879 18.23622,-34.937"
       fill-rule="evenodd"
       id="path10890"
       style="fill:none;stroke-miterlimit:10" /><path
       fill="#000000"
       fill-opacity="0"
       d="m 248.67281,162.85879 18.23622,-10.937"
       fill-rule="evenodd"
       id="path10892"
       style="stroke:none;stroke-width:0.75;stroke-linecap:square;stroke-miterlimit:10" /><path
       stroke="#666666"
       stroke-width="0.75"
       stroke-linejoin="round"
       stroke-linecap="butt"
       d="m 248.67281,162.85879 18.23622,-10.937"
       fill-rule="evenodd"
       id="path10894"
       style="fill:none;stroke-miterlimit:10" /><path
       fill="#000000"
       fill-opacity="0"
       d="m 248.67281,162.85879 18.23622,43.063"
       fill-rule="evenodd"
       id="path10896"
       style="stroke:none;stroke-width:0.75;stroke-linecap:square;stroke-miterlimit:10" /><path
       stroke="#666666"
       stroke-width="0.75"
       stroke-linejoin="round"
       stroke-linecap="butt"
       d="m 248.67281,162.85879 18.23622,43.063"
       fill-rule="evenodd"
       id="path10898"
       style="fill:none;stroke-miterlimit:10" /><path
       fill="#000000"
       fill-opacity="0"
       d="M 269.69436,223.71501 248.67074,162.86462"
       fill-rule="evenodd"
       id="path10900"
       style="stroke:none;stroke-width:0.75;stroke-linecap:square;stroke-miterlimit:10" /><path
       stroke="#666666"
       stroke-width="0.75"
       stroke-linejoin="round"
       stroke-linecap="butt"
       d="M 269.69436,223.71501 248.67074,162.86462"
       fill-rule="evenodd"
       id="path10902"
       style="fill:none;stroke-miterlimit:10" /><path
       fill="#000000"
       fill-opacity="0"
       d="m 248.67281,192.85879 18.23622,-64.937"
       fill-rule="evenodd"
       id="path10904"
       style="stroke:none;stroke-width:0.75;stroke-linecap:square;stroke-miterlimit:10" /><path
       stroke="#666666"
       stroke-width="0.75"
       stroke-linejoin="round"
       stroke-linecap="butt"
       d="m 248.67281,192.85879 18.23622,-64.937"
       fill-rule="evenodd"
       id="path10906"
       style="fill:none;stroke-miterlimit:10" /><path
       fill="#000000"
       fill-opacity="0"
       d="m 285.9858,229.91196 h 20.88188"
       fill-rule="evenodd"
       id="path10908"
       style="stroke:none;stroke-width:0.75;stroke-linecap:square;stroke-miterlimit:10" /><path
       stroke="#666666"
       stroke-width="0.75"
       stroke-linejoin="round"
       stroke-linecap="butt"
       d="m 285.9858,229.91196 h 20.88188"
       fill-rule="evenodd"
       id="path10910"
       style="fill:none;stroke-miterlimit:10" /><path
       fill="#000000"
       fill-opacity="0"
       d="m 285.9858,229.91196 20.88188,-24"
       fill-rule="evenodd"
       id="path10912"
       style="stroke:none;stroke-width:0.75;stroke-linecap:square;stroke-miterlimit:10" /><path
       stroke="#666666"
       stroke-width="0.75"
       stroke-linejoin="round"
       stroke-linecap="butt"
       d="m 285.9858,229.91196 20.88188,-24"
       fill-rule="evenodd"
       id="path10914"
       style="fill:none;stroke-miterlimit:10" /><path
       fill="#000000"
       fill-opacity="0"
       d="m 285.9858,229.91196 20.88188,-78"
       fill-rule="evenodd"
       id="path10916"
       style="stroke:none;stroke-width:0.75;stroke-linecap:square;stroke-miterlimit:10" /><path
       stroke="#666666"
       stroke-width="0.75"
       stroke-linejoin="round"
       stroke-linecap="butt"
       d="m 285.9858,229.91196 20.88188,-78"
       fill-rule="evenodd"
       id="path10918"
       style="fill:none;stroke-miterlimit:10" /><path
       fill="#000000"
       fill-opacity="0"
       d="m 285.9858,229.91196 20.88188,-102"
       fill-rule="evenodd"
       id="path10920"
       style="stroke:none;stroke-width:0.75;stroke-linecap:square;stroke-miterlimit:10" /><path
       stroke="#666666"
       stroke-width="0.75"
       stroke-linejoin="round"
       stroke-linecap="butt"
       d="m 285.9858,229.91196 20.88188,-102"
       fill-rule="evenodd"
       id="path10922"
       style="fill:none;stroke-miterlimit:10" /><path
       fill="#000000"
       fill-opacity="0"
       d="m 285.9858,205.91196 h 20.88188"
       fill-rule="evenodd"
       id="path10924"
       style="stroke:none;stroke-width:0.75;stroke-linecap:square;stroke-miterlimit:10" /><path
       stroke="#666666"
       stroke-width="0.75"
       stroke-linejoin="round"
       stroke-linecap="butt"
       d="m 285.9858,205.91196 h 20.88188"
       fill-rule="evenodd"
       id="path10926"
       style="fill:none;stroke-miterlimit:10" /><path
       fill="#000000"
       fill-opacity="0"
       d="m 285.9858,205.91196 20.88188,24"
       fill-rule="evenodd"
       id="path10928"
       style="stroke:none;stroke-width:0.75;stroke-linecap:square;stroke-miterlimit:10" /><path
       stroke="#666666"
       stroke-width="0.75"
       stroke-linejoin="round"
       stroke-linecap="butt"
       d="m 285.9858,205.91196 20.88188,24"
       fill-rule="evenodd"
       id="path10930"
       style="fill:none;stroke-miterlimit:10" /><path
       fill="#000000"
       fill-opacity="0"
       d="m 285.9858,205.91196 20.88188,-54"
       fill-rule="evenodd"
       id="path10932"
       style="stroke:none;stroke-width:0.75;stroke-linecap:square;stroke-miterlimit:10" /><path
       stroke="#666666"
       stroke-width="0.75"
       stroke-linejoin="round"
       stroke-linecap="butt"
       d="m 285.9858,205.91196 20.88188,-54"
       fill-rule="evenodd"
       id="path10934"
       style="fill:none;stroke-miterlimit:10" /><path
       fill="#000000"
       fill-opacity="0"
       d="m 285.9858,205.91196 20.88188,-78"
       fill-rule="evenodd"
       id="path10936"
       style="stroke:none;stroke-width:0.75;stroke-linecap:square;stroke-miterlimit:10" /><path
       stroke="#666666"
       stroke-width="0.75"
       stroke-linejoin="round"
       stroke-linecap="butt"
       d="m 285.9858,205.91196 20.88188,-78"
       fill-rule="evenodd"
       id="path10938"
       style="fill:none;stroke-miterlimit:10" /><path
       fill="#000000"
       fill-opacity="0"
       d="m 285.9858,151.91196 h 20.88188"
       fill-rule="evenodd"
       id="path10940"
       style="stroke:none;stroke-width:0.75;stroke-linecap:square;stroke-miterlimit:10" /><path
       stroke="#666666"
       stroke-width="0.75"
       stroke-linejoin="round"
       stroke-linecap="butt"
       d="m 285.9858,151.91196 h 20.88188"
       fill-rule="evenodd"
       id="path10942"
       style="fill:none;stroke-miterlimit:10" /><path
       fill="#000000"
       fill-opacity="0"
       d="m 285.9858,151.91196 20.88188,-24"
       fill-rule="evenodd"
       id="path10944"
       style="stroke:none;stroke-width:0.75;stroke-linecap:square;stroke-miterlimit:10" /><path
       stroke="#666666"
       stroke-width="0.75"
       stroke-linejoin="round"
       stroke-linecap="butt"
       d="m 285.9858,151.91196 20.88188,-24"
       fill-rule="evenodd"
       id="path10946"
       style="fill:none;stroke-miterlimit:10" /><path
       fill="#000000"
       fill-opacity="0"
       d="m 285.9858,151.91196 20.88188,54"
       fill-rule="evenodd"
       id="path10948"
       style="stroke:none;stroke-width:0.75;stroke-linecap:square;stroke-miterlimit:10" /><path
       stroke="#666666"
       stroke-width="0.75"
       stroke-linejoin="round"
       stroke-linecap="butt"
       d="m 285.9858,151.91196 20.88188,54"
       fill-rule="evenodd"
       id="path10950"
       style="fill:none;stroke-miterlimit:10" /><path
       fill="#000000"
       fill-opacity="0"
       d="m 285.9858,151.91196 20.88188,78"
       fill-rule="evenodd"
       id="path10952"
       style="stroke:none;stroke-width:0.75;stroke-linecap:square;stroke-miterlimit:10" /><path
       stroke="#666666"
       stroke-width="0.75"
       stroke-linejoin="round"
       stroke-linecap="butt"
       d="m 285.9858,151.91196 20.88188,78"
       fill-rule="evenodd"
       id="path10954"
       style="fill:none;stroke-miterlimit:10" /><path
       fill="#000000"
       fill-opacity="0"
       d="m 285.9858,127.91196 h 20.88188"
       fill-rule="evenodd"
       id="path10956"
       style="stroke:none;stroke-width:0.75;stroke-linecap:square;stroke-miterlimit:10" /><path
       stroke="#666666"
       stroke-width="0.75"
       stroke-linejoin="round"
       stroke-linecap="butt"
       d="m 285.9858,127.91196 h 20.88188"
       fill-rule="evenodd"
       id="path10958"
       style="fill:none;stroke-miterlimit:10" /><path
       fill="#000000"
       fill-opacity="0"
       d="m 285.9858,127.91196 20.88188,24"
       fill-rule="evenodd"
       id="path10960"
       style="stroke:none;stroke-width:0.75;stroke-linecap:square;stroke-miterlimit:10" /><path
       stroke="#666666"
       stroke-width="0.75"
       stroke-linejoin="round"
       stroke-linecap="butt"
       d="m 285.9858,127.91196 20.88188,24"
       fill-rule="evenodd"
       id="path10962"
       style="fill:none;stroke-miterlimit:10" /><path
       fill="#000000"
       fill-opacity="0"
       d="m 285.9858,127.91196 20.88188,78"
       fill-rule="evenodd"
       id="path10964"
       style="stroke:none;stroke-width:0.75;stroke-linecap:square;stroke-miterlimit:10" /><path
       stroke="#666666"
       stroke-width="0.75"
       stroke-linejoin="round"
       stroke-linecap="butt"
       d="m 285.9858,127.91196 20.88188,78"
       fill-rule="evenodd"
       id="path10966"
       style="fill:none;stroke-miterlimit:10" /><path
       fill="#000000"
       fill-opacity="0"
       d="m 285.9858,127.91196 20.88188,102"
       fill-rule="evenodd"
       id="path10968"
       style="stroke:none;stroke-width:0.75;stroke-linecap:square;stroke-miterlimit:10" /><path
       stroke="#666666"
       stroke-width="0.75"
       stroke-linejoin="round"
       stroke-linecap="butt"
       d="m 285.9858,127.91196 20.88188,102"
       fill-rule="evenodd"
       id="path10970"
       style="fill:none;stroke-miterlimit:10" /><path
       fill="#000000"
       fill-opacity="0"
       d="M 325.95233,229.91196 342.44052,193.2978"
       fill-rule="evenodd"
       id="path10972"
       style="stroke:none;stroke-width:0.75;stroke-linecap:square;stroke-miterlimit:10" /><path
       stroke="#666666"
       stroke-width="0.75"
       stroke-linejoin="round"
       stroke-linecap="butt"
       d="M 325.95233,229.91196 342.44052,193.2978"
       fill-rule="evenodd"
       id="path10974"
       style="fill:none;stroke-miterlimit:10" /><path
       fill="#000000"
       fill-opacity="0"
       d="m 325.95233,229.91196 16.51181,-67.063"
       fill-rule="evenodd"
       id="path10976"
       style="stroke:none;stroke-width:0.75;stroke-linecap:square;stroke-miterlimit:10" /><path
       stroke="#666666"
       stroke-width="0.75"
       stroke-linejoin="round"
       stroke-linecap="butt"
       d="m 325.95233,229.91196 16.51181,-67.063"
       fill-rule="evenodd"
       id="path10978"
       style="fill:none;stroke-miterlimit:10" /><path
       fill="#000000"
       fill-opacity="0"
       d="M 325.95233,205.91196 342.44052,193.2978"
       fill-rule="evenodd"
       id="path10980"
       style="stroke:none;stroke-width:0.75;stroke-linecap:square;stroke-miterlimit:10" /><path
       stroke="#666666"
       stroke-width="0.75"
       stroke-linejoin="round"
       stroke-linecap="butt"
       d="M 325.95233,205.91196 342.44052,193.2978"
       fill-rule="evenodd"
       id="path10982"
       style="fill:none;stroke-miterlimit:10" /><path
       fill="#000000"
       fill-opacity="0"
       d="m 325.95233,205.91196 16.51181,-43.063"
       fill-rule="evenodd"
       id="path10984"
       style="stroke:none;stroke-width:0.75;stroke-linecap:square;stroke-miterlimit:10" /><path
       stroke="#666666"
       stroke-width="0.75"
       stroke-linejoin="round"
       stroke-linecap="butt"
       d="m 325.95233,205.91196 16.51181,-43.063"
       fill-rule="evenodd"
       id="path10986"
       style="fill:none;stroke-miterlimit:10" /><path
       fill="#000000"
       fill-opacity="0"
       d="m 325.95233,127.91196 16.48819,65.38584"
       fill-rule="evenodd"
       id="path10988"
       style="stroke:none;stroke-width:0.75;stroke-linecap:square;stroke-miterlimit:10" /><path
       stroke="#666666"
       stroke-width="0.75"
       stroke-linejoin="round"
       stroke-linecap="butt"
       d="m 325.95233,127.91196 16.48819,65.38584"
       fill-rule="evenodd"
       id="path10990"
       style="fill:none;stroke-miterlimit:10" /><path
       fill="#000000"
       fill-opacity="0"
       d="m 325.95233,127.91196 16.51181,34.937"
       fill-rule="evenodd"
       id="path10992"
       style="stroke:none;stroke-width:0.75;stroke-linecap:square;stroke-miterlimit:10" /><path
       stroke="#666666"
       stroke-width="0.75"
       stroke-linejoin="round"
       stroke-linecap="butt"
       d="m 325.95233,127.91196 16.51181,34.937"
       fill-rule="evenodd"
       id="path10994"
       style="fill:none;stroke-miterlimit:10" /><path
       fill="#000000"
       fill-opacity="0"
       d="m 325.95233,127.91196 16.51181,34.937"
       fill-rule="evenodd"
       id="path10996"
       style="stroke:none;stroke-width:0.75;stroke-linecap:square;stroke-miterlimit:10" /><path
       stroke="#666666"
       stroke-width="0.75"
       stroke-linejoin="round"
       stroke-linecap="butt"
       d="m 325.95233,127.91196 16.51181,34.937"
       fill-rule="evenodd"
       id="path10998"
       style="fill:none;stroke-miterlimit:10" /><path
       fill="#000000"
       fill-opacity="0"
       d="m 325.95233,127.91196 16.48819,65.38584"
       fill-rule="evenodd"
       id="path11000"
       style="stroke:none;stroke-width:0.75;stroke-linecap:square;stroke-miterlimit:10" /><path
       stroke="#666666"
       stroke-width="0.75"
       stroke-linejoin="round"
       stroke-linecap="butt"
       d="m 325.95233,127.91196 16.48819,65.38584"
       fill-rule="evenodd"
       id="path11002"
       style="fill:none;stroke-miterlimit:10" /><path
       fill="#ffffff"
       d="m 342.4484,193.28991 v 0 c 0,4.8401 4.2727,8.76377 9.54332,8.76377 v 0 c 5.27062,0 9.5433,-3.92367 9.5433,-8.76377 v 0 c 0,-4.84012 -4.27268,-8.7638 -9.5433,-8.7638 v 0 c -5.27062,0 -9.54332,3.92368 -9.54332,8.7638 z"
       fill-rule="evenodd"
       id="path11004"
       style="stroke:none;stroke-width:0.75;stroke-linecap:square;stroke-miterlimit:10" /><path
       stroke="#5275ca"
       stroke-width="2.25"
       stroke-linejoin="round"
       stroke-linecap="butt"
       d="m 342.4484,193.28991 v 0 c 0,4.8401 4.2727,8.76377 9.54332,8.76377 v 0 c 5.27062,0 9.5433,-3.92367 9.5433,-8.76377 v 0 c 0,-4.84012 -4.27268,-8.7638 -9.5433,-8.7638 v 0 c -5.27062,0 -9.54332,3.92368 -9.54332,8.7638 z"
       fill-rule="evenodd"
       id="path11006"
       style="fill:none;stroke-miterlimit:10" /><path
       fill="#ffffff"
       d="m 342.45627,162.85879 v 0 c 0,4.84012 4.27269,8.7638 9.54332,8.7638 v 0 c 5.27062,0 9.54329,-3.92368 9.54329,-8.7638 v 0 c 0,-4.84009 -4.27267,-8.76377 -9.54329,-8.76377 v 0 c -5.27063,0 -9.54332,3.92368 -9.54332,8.76377 z"
       fill-rule="evenodd"
       id="path11008"
       style="stroke:none;stroke-width:0.75;stroke-linecap:square;stroke-miterlimit:10" /><path
       stroke="#5275ca"
       stroke-width="2.25"
       stroke-linejoin="round"
       stroke-linecap="butt"
       d="m 342.45627,162.85879 v 0 c 0,4.84012 4.27269,8.7638 9.54332,8.7638 v 0 c 5.27062,0 9.54329,-3.92368 9.54329,-8.7638 v 0 c 0,-4.84009 -4.27267,-8.76377 -9.54329,-8.76377 v 0 c -5.27063,0 -9.54332,3.92368 -9.54332,8.76377 z"
       fill-rule="evenodd"
       id="path11010"
       style="fill:none;stroke-miterlimit:10" /><path
       fill="#ffffff"
       d="m 229.58619,192.85879 v 0 c 0,4.84012 4.27268,8.7638 9.54331,8.7638 v 0 c 5.27062,0 9.54331,-3.92368 9.54331,-8.7638 v 0 c 0,-4.84009 -4.27269,-8.76377 -9.54331,-8.76377 v 0 c -5.27063,0 -9.54331,3.92368 -9.54331,8.76377 z"
       fill-rule="evenodd"
       id="path11012"
       style="stroke:none;stroke-width:0.75;stroke-linecap:square;stroke-miterlimit:10" /><path
       stroke="#5275ca"
       stroke-width="2.25"
       stroke-linejoin="round"
       stroke-linecap="butt"
       d="m 229.58619,192.85879 v 0 c 0,4.84012 4.27268,8.7638 9.54331,8.7638 v 0 c 5.27062,0 9.54331,-3.92368 9.54331,-8.7638 v 0 c 0,-4.84009 -4.27269,-8.76377 -9.54331,-8.76377 v 0 c -5.27063,0 -9.54331,3.92368 -9.54331,8.76377 z"
       fill-rule="evenodd"
       id="path11014"
       style="fill:none;stroke-miterlimit:10" /><path
       fill="#ffffff"
       d="m 229.58619,162.85879 v 0 c 0,4.84012 4.27268,8.7638 9.54331,8.7638 v 0 c 5.27062,0 9.54331,-3.92368 9.54331,-8.7638 v 0 c 0,-4.84009 -4.27269,-8.76377 -9.54331,-8.76377 v 0 c -5.27063,0 -9.54331,3.92368 -9.54331,8.76377 z"
       fill-rule="evenodd"
       id="path11016"
       style="stroke:none;stroke-width:0.75;stroke-linecap:square;stroke-miterlimit:10" /><path
       stroke="#5275ca"
       stroke-width="2.25"
       stroke-linejoin="round"
       stroke-linecap="butt"
       d="m 229.58619,162.85879 v 0 c 0,4.84012 4.27268,8.7638 9.54331,8.7638 v 0 c 5.27062,0 9.54331,-3.92368 9.54331,-8.7638 v 0 c 0,-4.84009 -4.27269,-8.76377 -9.54331,-8.76377 v 0 c -5.27063,0 -9.54331,3.92368 -9.54331,8.76377 z"
       fill-rule="evenodd"
       id="path11018"
       style="fill:none;stroke-miterlimit:10" /><path
       fill="#ffffff"
       d="m 266.89918,229.91196 v 0 c 0,4.84012 4.27268,8.76379 9.54331,8.76379 v 0 c 5.27062,0 9.54331,-3.92367 9.54331,-8.76379 v 0 c 0,-4.84009 -4.27269,-8.76377 -9.54331,-8.76377 v 0 c -5.27063,0 -9.54331,3.92368 -9.54331,8.76377 z"
       fill-rule="evenodd"
       id="path11020"
       style="stroke:none;stroke-width:0.75;stroke-linecap:square;stroke-miterlimit:10" /><path
       stroke="#595959"
       stroke-width="2.25"
       stroke-linejoin="round"
       stroke-linecap="butt"
       d="m 266.89918,229.91196 v 0 c 0,4.84012 4.27268,8.76379 9.54331,8.76379 v 0 c 5.27062,0 9.54331,-3.92367 9.54331,-8.76379 v 0 c 0,-4.84009 -4.27269,-8.76377 -9.54331,-8.76377 v 0 c -5.27063,0 -9.54331,3.92368 -9.54331,8.76377 z"
       fill-rule="evenodd"
       id="path11022"
       style="fill:none;stroke-miterlimit:10" /><path
       fill="#ffffff"
       d="m 266.89918,205.91196 v 0 c 0,4.84012 4.27268,8.7638 9.54331,8.7638 v 0 c 5.27062,0 9.54331,-3.92368 9.54331,-8.7638 v 0 c 0,-4.84009 -4.27269,-8.76377 -9.54331,-8.76377 v 0 c -5.27063,0 -9.54331,3.92368 -9.54331,8.76377 z"
       fill-rule="evenodd"
       id="path11024"
       style="stroke:none;stroke-width:0.75;stroke-linecap:square;stroke-miterlimit:10" /><path
       stroke="#595959"
       stroke-width="2.25"
       stroke-linejoin="round"
       stroke-linecap="butt"
       d="m 266.89918,205.91196 v 0 c 0,4.84012 4.27268,8.7638 9.54331,8.7638 v 0 c 5.27062,0 9.54331,-3.92368 9.54331,-8.7638 v 0 c 0,-4.84009 -4.27269,-8.76377 -9.54331,-8.76377 v 0 c -5.27063,0 -9.54331,3.92368 -9.54331,8.76377 z"
       fill-rule="evenodd"
       id="path11026"
       style="fill:none;stroke-miterlimit:10" /><path
       fill="#ffffff"
       d="m 266.89918,151.91196 v 0 c 0,4.84012 4.27268,8.76379 9.54331,8.76379 v 0 c 5.27062,0 9.54331,-3.92367 9.54331,-8.76379 v 0 c 0,-4.8401 -4.27269,-8.76377 -9.54331,-8.76377 v 0 c -5.27063,0 -9.54331,3.92367 -9.54331,8.76377 z"
       fill-rule="evenodd"
       id="path11028"
       style="stroke:none;stroke-width:0.75;stroke-linecap:square;stroke-miterlimit:10" /><path
       stroke="#595959"
       stroke-width="2.25"
       stroke-linejoin="round"
       stroke-linecap="butt"
       d="m 266.89918,151.91196 v 0 c 0,4.84012 4.27268,8.76379 9.54331,8.76379 v 0 c 5.27062,0 9.54331,-3.92367 9.54331,-8.76379 v 0 c 0,-4.8401 -4.27269,-8.76377 -9.54331,-8.76377 v 0 c -5.27063,0 -9.54331,3.92367 -9.54331,8.76377 z"
       fill-rule="evenodd"
       id="path11030"
       style="fill:none;stroke-miterlimit:10" /><path
       fill="#ffffff"
       d="m 266.89918,127.91196 v 0 c 0,4.84012 4.27268,8.76379 9.54331,8.76379 v 0 c 5.27062,0 9.54331,-3.92367 9.54331,-8.76379 v 0 c 0,-4.8401 -4.27269,-8.76377 -9.54331,-8.76377 v 0 c -5.27063,0 -9.54331,3.92367 -9.54331,8.76377 z"
       fill-rule="evenodd"
       id="path11032"
       style="stroke:none;stroke-width:0.75;stroke-linecap:square;stroke-miterlimit:10" /><path
       stroke="#595959"
       stroke-width="2.25"
       stroke-linejoin="round"
       stroke-linecap="butt"
       d="m 266.89918,127.91196 v 0 c 0,4.84012 4.27268,8.76379 9.54331,8.76379 v 0 c 5.27062,0 9.54331,-3.92367 9.54331,-8.76379 v 0 c 0,-4.8401 -4.27269,-8.76377 -9.54331,-8.76377 v 0 c -5.27063,0 -9.54331,3.92367 -9.54331,8.76377 z"
       fill-rule="evenodd"
       id="path11034"
       style="fill:none;stroke-miterlimit:10" /><path
       fill="#ffffff"
       d="m 306.86571,229.91196 v 0 c 0,4.84012 4.2727,8.76379 9.54333,8.76379 v 0 c 5.27061,0 9.54329,-3.92367 9.54329,-8.76379 v 0 c 0,-4.84009 -4.27268,-8.76377 -9.54329,-8.76377 v 0 c -5.27063,0 -9.54333,3.92368 -9.54333,8.76377 z"
       fill-rule="evenodd"
       id="path11036"
       style="stroke:none;stroke-width:0.75;stroke-linecap:square;stroke-miterlimit:10" /><path
       stroke="#595959"
       stroke-width="2.25"
       stroke-linejoin="round"
       stroke-linecap="butt"
       d="m 306.86571,229.91196 v 0 c 0,4.84012 4.2727,8.76379 9.54333,8.76379 v 0 c 5.27061,0 9.54329,-3.92367 9.54329,-8.76379 v 0 c 0,-4.84009 -4.27268,-8.76377 -9.54329,-8.76377 v 0 c -5.27063,0 -9.54333,3.92368 -9.54333,8.76377 z"
       fill-rule="evenodd"
       id="path11038"
       style="fill:none;stroke-miterlimit:10" /><path
       fill="#ffffff"
       d="m 306.86571,205.91196 v 0 c 0,4.84012 4.2727,8.7638 9.54333,8.7638 v 0 c 5.27061,0 9.54329,-3.92368 9.54329,-8.7638 v 0 c 0,-4.84009 -4.27268,-8.76377 -9.54329,-8.76377 v 0 c -5.27063,0 -9.54333,3.92368 -9.54333,8.76377 z"
       fill-rule="evenodd"
       id="path11040"
       style="stroke:none;stroke-width:0.75;stroke-linecap:square;stroke-miterlimit:10" /><path
       stroke="#595959"
       stroke-width="2.25"
       stroke-linejoin="round"
       stroke-linecap="butt"
       d="m 306.86571,205.91196 v 0 c 0,4.84012 4.2727,8.7638 9.54333,8.7638 v 0 c 5.27061,0 9.54329,-3.92368 9.54329,-8.7638 v 0 c 0,-4.84009 -4.27268,-8.76377 -9.54329,-8.76377 v 0 c -5.27063,0 -9.54333,3.92368 -9.54333,8.76377 z"
       fill-rule="evenodd"
       id="path11042"
       style="fill:none;stroke-miterlimit:10" /><path
       fill="#ffffff"
       d="m 306.86571,151.91196 v 0 c 0,4.84012 4.2727,8.76379 9.54333,8.76379 v 0 c 5.27061,0 9.54329,-3.92367 9.54329,-8.76379 v 0 c 0,-4.8401 -4.27268,-8.76377 -9.54329,-8.76377 v 0 c -5.27063,0 -9.54333,3.92367 -9.54333,8.76377 z"
       fill-rule="evenodd"
       id="path11044"
       style="stroke:none;stroke-width:0.75;stroke-linecap:square;stroke-miterlimit:10" /><path
       stroke="#595959"
       stroke-width="2.25"
       stroke-linejoin="round"
       stroke-linecap="butt"
       d="m 306.86571,151.91196 v 0 c 0,4.84012 4.2727,8.76379 9.54333,8.76379 v 0 c 5.27061,0 9.54329,-3.92367 9.54329,-8.76379 v 0 c 0,-4.8401 -4.27268,-8.76377 -9.54329,-8.76377 v 0 c -5.27063,0 -9.54333,3.92367 -9.54333,8.76377 z"
       fill-rule="evenodd"
       id="path11046"
       style="fill:none;stroke-miterlimit:10" /><path
       fill="#ffffff"
       d="m 306.86571,127.91196 v 0 c 0,4.84012 4.2727,8.76379 9.54333,8.76379 v 0 c 5.27061,0 9.54329,-3.92367 9.54329,-8.76379 v 0 c 0,-4.8401 -4.27268,-8.76377 -9.54329,-8.76377 v 0 c -5.27063,0 -9.54333,3.92367 -9.54333,8.76377 z"
       fill-rule="evenodd"
       id="path11048"
       style="stroke:none;stroke-width:0.75;stroke-linecap:square;stroke-miterlimit:10" /><path
       stroke="#595959"
       stroke-width="2.25"
       stroke-linejoin="round"
       stroke-linecap="butt"
       d="m 306.86571,127.91196 v 0 c 0,4.84012 4.2727,8.76379 9.54333,8.76379 v 0 c 5.27061,0 9.54329,-3.92367 9.54329,-8.76379 v 0 c 0,-4.8401 -4.27268,-8.76377 -9.54329,-8.76377 v 0 c -5.27063,0 -9.54333,3.92367 -9.54333,8.76377 z"
       fill-rule="evenodd"
       id="path11050"
       style="fill:none;stroke-miterlimit:10" /><path
       fill="#000000"
       fill-opacity="0"
       d="M 276.44249,197.14818 V 160.67575"
       fill-rule="evenodd"
       id="path11052"
       style="stroke:none;stroke-width:0.75;stroke-linecap:square;stroke-miterlimit:10" /><path
       stroke="#595959"
       stroke-width="1.5"
       stroke-linejoin="round"
       stroke-linecap="butt"
       stroke-dasharray="1.5, 4.5"
       d="M 276.44249,197.14818 V 160.67575"
       fill-rule="evenodd"
       id="path11054"
       style="fill:none;stroke-miterlimit:10" /><path
       fill="#000000"
       fill-opacity="0"
       d="M 316.40904,197.14818 V 160.67575"
       fill-rule="evenodd"
       id="path11056"
       style="stroke:none;stroke-width:0.75;stroke-linecap:square;stroke-miterlimit:10" /><path
       stroke="#595959"
       stroke-width="1.5"
       stroke-linejoin="round"
       stroke-linecap="butt"
       stroke-dasharray="1.5, 4.5"
       d="M 316.40904,197.14818 V 160.67575"
       fill-rule="evenodd"
       id="path11058"
       style="fill:none;stroke-miterlimit:10" /><path
       fill="#000000"
       fill-opacity="0"
       d="M 342.4484,193.28991 325.96021,151.90407"
       fill-rule="evenodd"
       id="path11060"
       style="stroke:none;stroke-width:0.75;stroke-linecap:square;stroke-miterlimit:10" /><path
       stroke="#595959"
       stroke-width="0.75"
       stroke-linejoin="round"
       stroke-linecap="butt"
       d="M 342.4484,193.28991 325.96021,151.90407"
       fill-rule="evenodd"
       id="path11062"
       style="fill:none;stroke-miterlimit:10" /><path
       fill="#000000"
       fill-opacity="0"
       d="m 342.45627,162.85879 -16.51182,-10.937"
       fill-rule="evenodd"
       id="path11064"
       style="stroke:none;stroke-width:0.75;stroke-linecap:square;stroke-miterlimit:10" /><path
       stroke="#595959"
       stroke-width="0.75"
       stroke-linejoin="round"
       stroke-linecap="butt"
       d="m 342.45627,162.85879 -16.51182,-10.937"
       fill-rule="evenodd"
       id="path11066"
       style="fill:none;stroke-miterlimit:10" /></g></svg>
