<?xml version="1.0" encoding="UTF-8" standalone="no"?>
<svg
   xmlns:dc="http://purl.org/dc/elements/1.1/"
   xmlns:cc="http://creativecommons.org/ns#"
   xmlns:rdf="http://www.w3.org/1999/02/22-rdf-syntax-ns#"
   xmlns:svg="http://www.w3.org/2000/svg"
   xmlns="http://www.w3.org/2000/svg"
   version="1.1"
   id="svg2"
   xml:space="preserve"
   width="216.01199"
   height="216.01199"
   viewBox="0 0 216.01199 216.01199"><metadata
     id="metadata8"><rdf:RDF><cc:Work
         rdf:about=""><dc:format>image/svg+xml</dc:format><dc:type
           rdf:resource="http://purl.org/dc/dcmitype/StillImage" /><dc:title></dc:title></cc:Work></rdf:RDF></metadata><defs
     id="defs6"><clipPath
       clipPathUnits="userSpaceOnUse"
       id="clipPath22"><path
         d="M 0,192.916 H 355.209 V 0 H 0 Z"
         id="path20" /></clipPath></defs><g
     id="g10"
     transform="matrix(1.3333333,0,0,-1.3333333,-0.56799999,257.22133)"><path
       d="M 0.426,192.916 H 162.435 V 30.907 H 0.426 Z"
       style="fill:#3f5a2a;fill-opacity:1;fill-rule:nonzero;stroke:none"
       id="path46" /><path
       d="m 35.2622,104.4424 h -22.206 v -2.878 h 0.353 c 3.76,0 5.346,-0.94 5.346,-3.701 v -28.667 c 0,-3.055 -1.586,-3.937 -5.699,-3.995 v -3.055 h 22.206 v 3.055 c -4.171,0.058 -5.757,0.94 -5.757,3.995 v 28.667 c 0,2.761 1.586,3.701 5.404,3.701 h 0.353 z"
       style="fill:#ffffff;fill-opacity:1;fill-rule:evenodd;stroke:none"
       id="path50" /><path
       d="m 65.2349,61.207 c 0.176,2.408 0.881,3.642 1.997,3.642 0.587,0 1.821,-0.764 3.76,-1.586 3.055,-1.292 5.992,-2.174 9.281,-2.174 9.458,0 15.215,5.287 15.215,13.218 0,6.99 -4.288,10.221 -12.924,13.804 -4.523,1.88 -8.283,2.879 -10.574,4.348 -1.88,1.233 -2.761,2.408 -2.761,4.229 0,3.231 2.761,5.581 7.578,5.581 5.816,0 10.222,-3.466 13.277,-10.457 h 2.643 l -0.352,13.805 h -2.702 c -0.529,-1.762 -1.293,-2.702 -2.292,-2.702 -1.585,0 -5.345,2.526 -11.572,2.526 -8.107,0 -13.629,-5.11 -13.629,-12.218 0,-5.817 3.877,-9.752 11.807,-12.866 8.577,-3.348 13.394,-4.934 13.394,-9.927 0,-3.525 -2.996,-6.051 -7.578,-6.051 -6.285,0 -12.218,4.993 -15.214,14.099 h -2.997 l 0.647,-17.271 z"
       style="fill:#ffffff;fill-opacity:1;fill-rule:evenodd;stroke:none"
       id="path54" /><path
       d="m 124.2036,62.1465 h 23.028 v 3.055 c -4.465,0.117 -6.286,0.999 -6.286,4.053 v 32.309 c 0.353,0.059 0.705,0.059 1.058,0.059 5.58,0 8.87,-4.406 10.926,-13.57 h 2.937 l -0.47,16.39 h -39.417 l -0.47,-16.624 h 2.644 c 2.467,9.398 5.522,13.863 11.22,13.863 0.352,0 0.764,0 1.116,-0.059 v -32.25 c 0,-3.172 -1.763,-4.054 -6.286,-4.171 z"
       style="fill:#ffffff;fill-opacity:1;fill-rule:evenodd;stroke:none"
       id="path58" /><path
       d="M 52.712,50.523 H 50.14 v 124.615 h 2.572 z"
       style="fill:#ffffff;fill-opacity:1;fill-rule:nonzero;stroke:none"
       id="path60" /><path
       d="m 108.38,50.523 h -2.572 v 124.615 h 2.572 z"
       style="fill:#ffffff;fill-opacity:1;fill-rule:nonzero;stroke:none"
       id="path62" /></g></svg>
